<svg width="50" height="50" viewBox="0 0 50 50" fill="none" xmlns="http://www.w3.org/2000/svg">
<path d="M30.6875 11.7187C30.6875 10.1172 31.9922 8.8125 33.5938 8.8125H35.375V6.25H36.5016V8.8125H40.625V9.9375H33.5938C32.6109 9.9375 31.8125 10.7375 31.8125 11.7187C31.8125 12.7 32.6109 13.5 33.5938 13.5H38.2812C39.8828 13.5 41.1875 14.8031 41.1875 16.4062C41.1875 18.0094 39.8828 19.3125 38.2812 19.3125H36.5V21.875H35.375V19.3125H31.25V18.1875H38.2812C39.2641 18.1875 40.0625 17.3875 40.0625 16.4062C40.0625 15.425 39.2641 14.625 38.2812 14.625H33.5938C31.9922 14.625 30.6875 13.3203 30.6875 11.7187ZM22.875 14.0625C22.875 6.85937 28.7344 1 35.9375 1C43.1406 1 49 6.85937 49 14.0625C49 21.2656 43.1391 27.125 35.9375 27.125C28.7359 27.125 22.875 21.2656 22.875 14.0625ZM24 14.0625C24 20.6453 29.3547 26 35.9375 26C42.5203 26 47.875 20.6453 47.875 14.0625C47.875 7.47969 42.5203 2.125 35.9375 2.125C29.3547 2.125 24 7.47969 24 14.0625ZM47.875 42.3906L36.3359 30.8516C36.2312 30.7469 36.0875 30.6875 35.9375 30.6875H18.9828L2.125 13.8297V1.5625H1V48.4375C1 48.7484 1.25156 49 1.5625 49H48.4375V47.875H2.125V15.4203L18.3531 31.6484C18.4578 31.7531 18.6016 31.8125 18.75 31.8125H35.7047L47.0781 43.1859H43.75V44.3125H49V39.0625H47.875V42.3906Z" fill="#62F9D6"/>
</svg>
