<svg width="50" height="50" viewBox="0 0 50 50" fill="none" xmlns="http://www.w3.org/2000/svg">
<path d="M25 0.921875L7.25 10.6031V31.25C7.25 40.8719 15.3781 49 25 49C34.6219 49 42.75 40.8719 42.75 31.25V10.6031L25 0.921875ZM40.375 37.4328L25 29.05V30.3328L39.9 38.4547C38.8078 40.6531 37.2531 42.5969 35.3547 44.1359L25 38.4922V39.775L34.3672 44.8813C31.6781 46.7563 28.4437 47.875 25 47.875C15.9875 47.875 8.375 40.2625 8.375 31.25V11.2719L25 2.20312L41.625 11.2719V19.3656L25 10.3V11.5813L41.625 20.6453V28.6719L25 19.6078V20.8891L41.625 29.9547V31.25C41.625 33.4219 41.1734 35.5094 40.375 37.4328Z" fill="#62F9D6"/>
</svg>
