<svg width="50" height="50" viewBox="0 0 50 50" fill="none" xmlns="http://www.w3.org/2000/svg">
<path d="M42.5861 30.086L47.6705 25L42.5861 19.9156L41.7893 20.711L45.5174 24.4391H25.233L14.6252 13.8281V8.37502H45.5174L41.7893 12.1031L42.5861 12.8985L47.6705 7.81252L42.5861 2.72815L41.7893 3.52346L45.5174 7.25159H14.0627C13.7518 7.25002 13.5002 7.50159 13.5002 7.81252V13.8281L2.72676 24.6031C2.50645 24.8235 2.50645 25.1781 2.72676 25.3985L13.5002 36.1719V42.1875C13.5002 42.4985 13.7518 42.75 14.0627 42.75H45.5174L41.7893 46.4766L42.5861 47.2735L47.6705 42.1875L42.5861 37.1016L41.7893 37.8985L45.5174 41.625H14.6252V36.1719L25.233 25.5625H45.5174L41.7893 29.2891L42.5861 30.086ZM14.0627 35.1422L3.92051 25L14.0627 14.8563L24.2049 25L14.0627 35.1422Z" fill="#62F9D6"/>
</svg>
